<svg width="196" height="43" viewBox="0 0 196 43" fill="none" xmlns="http://www.w3.org/2000/svg">
<g clip-path="url(#clip0_619_4)">
<path d="M0.528409 37V7.90909H12.0057C14.2121 7.90909 16.0919 8.33049 17.6449 9.1733C19.1979 10.0066 20.3816 11.1667 21.196 12.6534C22.0199 14.1307 22.4318 15.8352 22.4318 17.767C22.4318 19.6989 22.0152 21.4034 21.1818 22.8807C20.3485 24.358 19.1411 25.5085 17.5597 26.3324C15.9877 27.1562 14.0843 27.5682 11.8494 27.5682H4.53409V22.6392H10.8551C12.0388 22.6392 13.0142 22.4356 13.7812 22.0284C14.5578 21.6117 15.1354 21.0388 15.5142 20.3097C15.9025 19.571 16.0966 18.7235 16.0966 17.767C16.0966 16.8011 15.9025 15.9583 15.5142 15.2386C15.1354 14.5095 14.5578 13.946 13.7812 13.5483C13.0047 13.1411 12.0199 12.9375 10.8267 12.9375H6.67898V37H0.528409ZM35.9048 37.4261C33.6605 37.4261 31.7287 36.9716 30.1094 36.0625C28.4995 35.1439 27.259 33.8466 26.3878 32.1705C25.5166 30.4848 25.081 28.4915 25.081 26.1903C25.081 23.946 25.5166 21.9763 26.3878 20.2812C27.259 18.5862 28.4853 17.2652 30.0668 16.3182C31.6577 15.3712 33.5232 14.8977 35.6634 14.8977C37.1027 14.8977 38.4427 15.1297 39.6832 15.5938C40.9332 16.0483 42.0223 16.7348 42.9503 17.6534C43.8878 18.572 44.617 19.7273 45.1378 21.1193C45.6586 22.5019 45.919 24.1212 45.919 25.9773V27.6392H27.4957V23.8892H40.223C40.223 23.018 40.0336 22.2462 39.6548 21.5739C39.276 20.9015 38.7505 20.3759 38.0781 19.9972C37.4152 19.6089 36.6435 19.4148 35.7628 19.4148C34.8442 19.4148 34.0298 19.6278 33.3196 20.054C32.6188 20.4706 32.0696 21.0341 31.6719 21.7443C31.2741 22.4451 31.0705 23.2263 31.0611 24.0881V27.6534C31.0611 28.733 31.2599 29.6657 31.6577 30.4517C32.0649 31.2377 32.6378 31.8438 33.3764 32.2699C34.1151 32.696 34.991 32.9091 36.0043 32.9091C36.6766 32.9091 37.2921 32.8144 37.8509 32.625C38.4096 32.4356 38.8878 32.1515 39.2855 31.7727C39.6832 31.3939 39.9863 30.9299 40.1946 30.3807L45.7912 30.75C45.5071 32.0947 44.9247 33.2689 44.044 34.2727C43.1728 35.267 42.0459 36.0436 40.6634 36.6023C39.2902 37.1515 37.7041 37.4261 35.9048 37.4261ZM49.8679 37V15.1818H55.7344V18.9886H55.9616C56.3594 17.6345 57.027 16.6117 57.9645 15.9205C58.902 15.2197 59.9815 14.8693 61.2031 14.8693C61.5062 14.8693 61.8329 14.8883 62.1832 14.9261C62.5336 14.964 62.8414 15.0161 63.1065 15.0824V20.4517C62.8224 20.3665 62.4295 20.2907 61.9276 20.2244C61.4257 20.1581 60.9664 20.125 60.5497 20.125C59.6596 20.125 58.8641 20.3191 58.1634 20.7074C57.4721 21.0862 56.9228 21.6165 56.5156 22.2983C56.1179 22.9801 55.919 23.7661 55.919 24.6562V37H49.8679ZM79.0618 15.1818V19.7273H65.5959V15.1818H79.0618ZM68.6783 37V13.6051C68.6783 12.0237 68.986 10.7121 69.6016 9.67045C70.2266 8.62879 71.0788 7.84754 72.1584 7.3267C73.2379 6.80587 74.4643 6.54545 75.8374 6.54545C76.7654 6.54545 77.6129 6.61648 78.38 6.75852C79.1565 6.90057 79.7341 7.02841 80.1129 7.14205L79.0334 11.6875C78.7966 11.6117 78.5031 11.5407 78.1527 11.4744C77.8118 11.4081 77.4614 11.375 77.1016 11.375C76.2114 11.375 75.5911 11.5833 75.2408 12C74.8904 12.4072 74.7152 12.9801 74.7152 13.7188V37H68.6783ZM91.8352 37.4261C89.6288 37.4261 87.7206 36.9574 86.1108 36.0199C84.5104 35.0729 83.2746 33.7566 82.4034 32.071C81.5322 30.3759 81.0966 28.411 81.0966 26.1761C81.0966 23.9223 81.5322 21.9527 82.4034 20.267C83.2746 18.572 84.5104 17.2557 86.1108 16.3182C87.7206 15.3712 89.6288 14.8977 91.8352 14.8977C94.0417 14.8977 95.9451 15.3712 97.5455 16.3182C99.1553 17.2557 100.396 18.572 101.267 20.267C102.138 21.9527 102.574 23.9223 102.574 26.1761C102.574 28.411 102.138 30.3759 101.267 32.071C100.396 33.7566 99.1553 35.0729 97.5455 36.0199C95.9451 36.9574 94.0417 37.4261 91.8352 37.4261ZM91.8636 32.7386C92.8674 32.7386 93.7055 32.4545 94.3778 31.8864C95.0502 31.3087 95.5568 30.5227 95.8977 29.5284C96.2481 28.5341 96.4233 27.4025 96.4233 26.1335C96.4233 24.8646 96.2481 23.733 95.8977 22.7386C95.5568 21.7443 95.0502 20.9583 94.3778 20.3807C93.7055 19.803 92.8674 19.5142 91.8636 19.5142C90.8504 19.5142 89.9981 19.803 89.3068 20.3807C88.625 20.9583 88.1089 21.7443 87.7585 22.7386C87.4176 23.733 87.2472 24.8646 87.2472 26.1335C87.2472 27.4025 87.4176 28.5341 87.7585 29.5284C88.1089 30.5227 88.625 31.3087 89.3068 31.8864C89.9981 32.4545 90.8504 32.7386 91.8636 32.7386ZM106.509 37V15.1818H112.375V18.9886H112.602C113 17.6345 113.668 16.6117 114.605 15.9205C115.543 15.2197 116.622 14.8693 117.844 14.8693C118.147 14.8693 118.473 14.8883 118.824 14.9261C119.174 14.964 119.482 15.0161 119.747 15.0824V20.4517C119.463 20.3665 119.07 20.2907 118.568 20.2244C118.066 20.1581 117.607 20.125 117.19 20.125C116.3 20.125 115.505 20.3191 114.804 20.7074C114.113 21.0862 113.563 21.6165 113.156 22.2983C112.759 22.9801 112.56 23.7661 112.56 24.6562V37H106.509ZM122.876 37V15.1818H128.643V19.0312H128.898C129.353 17.7528 130.111 16.7443 131.171 16.0057C132.232 15.267 133.501 14.8977 134.978 14.8977C136.474 14.8977 137.748 15.2718 138.799 16.0199C139.85 16.7585 140.551 17.7623 140.901 19.0312H141.129C141.574 17.7812 142.379 16.7822 143.543 16.0341C144.718 15.2765 146.105 14.8977 147.705 14.8977C149.741 14.8977 151.394 15.5464 152.663 16.8438C153.941 18.1316 154.58 19.9593 154.58 22.3267V37H148.543V23.5199C148.543 22.3078 148.221 21.3987 147.577 20.7926C146.933 20.1866 146.129 19.8835 145.163 19.8835C144.064 19.8835 143.207 20.2339 142.592 20.9347C141.976 21.6259 141.668 22.5398 141.668 23.6761V37H135.802V23.392C135.802 22.322 135.494 21.4697 134.879 20.8352C134.272 20.2008 133.472 19.8835 132.478 19.8835C131.806 19.8835 131.2 20.054 130.66 20.3949C130.129 20.7263 129.708 21.1951 129.396 21.8011C129.083 22.3977 128.927 23.0985 128.927 23.9034V37H122.876ZM169.218 37.4261C167.012 37.4261 165.103 36.9574 163.494 36.0199C161.893 35.0729 160.657 33.7566 159.786 32.071C158.915 30.3759 158.479 28.411 158.479 26.1761C158.479 23.9223 158.915 21.9527 159.786 20.267C160.657 18.572 161.893 17.2557 163.494 16.3182C165.103 15.3712 167.012 14.8977 169.218 14.8977C171.424 14.8977 173.328 15.3712 174.928 16.3182C176.538 17.2557 177.779 18.572 178.65 20.267C179.521 21.9527 179.957 23.9223 179.957 26.1761C179.957 28.411 179.521 30.3759 178.65 32.071C177.779 33.7566 176.538 35.0729 174.928 36.0199C173.328 36.9574 171.424 37.4261 169.218 37.4261ZM169.246 32.7386C170.25 32.7386 171.088 32.4545 171.761 31.8864C172.433 31.3087 172.94 30.5227 173.281 29.5284C173.631 28.5341 173.806 27.4025 173.806 26.1335C173.806 24.8646 173.631 23.733 173.281 22.7386C172.94 21.7443 172.433 20.9583 171.761 20.3807C171.088 19.803 170.25 19.5142 169.246 19.5142C168.233 19.5142 167.381 19.803 166.69 20.3807C166.008 20.9583 165.492 21.7443 165.141 22.7386C164.8 23.733 164.63 24.8646 164.63 26.1335C164.63 27.4025 164.8 28.5341 165.141 29.5284C165.492 30.5227 166.008 31.3087 166.69 31.8864C167.381 32.4545 168.233 32.7386 169.246 32.7386Z" fill="#222222"/>
<circle cx="191" cy="33" r="5" fill="#696CFF"/>
</g>
<defs>
<clipPath id="clip0_619_4">
<rect width="196" height="43" fill="white"/>
</clipPath>
</defs>
</svg>
